<svg xmlns="http://www.w3.org/2000/svg" viewBox="0 0 28.46 40.33"><defs><style>.cls-1{fill:#fff}</style></defs><g id="Layer_2" data-name="Layer 2"><g id="Layer_1-2" data-name="Layer 1"><path class="cls-1" d="M14.2 40.33a26.15 26.15 0 01-11.91-2.87 1.16 1.16 0 01-.48-1.61l2.3-4a1.14 1.14 0 011.51-.45 19.19 19.19 0 0017.26-.06 1.15 1.15 0 011.51.45l2.33 4a1.17 1.17 0 01-.47 1.61 26.13 26.13 0 01-12.05 2.93zM13.68 28.45A14.46 14.46 0 010 13.88 13.87 13.87 0 0113.88 0H27.3a1.16 1.16 0 011.16 1.15v13.08a14.25 14.25 0 01-14.78 14.22zM6.92 14a7.67 7.67 0 006.81 7.55 7.32 7.32 0 007.8-7.29V8.08a1.15 1.15 0 00-1.15-1.16H14A7.05 7.05 0 006.92 14z"/></g></g></svg>